<mxfile host="app.diagrams.net" modified="2023-12-22T21:04:54.771Z" agent="Mozilla/5.0 (Windows NT 10.0; Win64; x64) AppleWebKit/537.36 (KHTML, like Gecko) Chrome/120.0.0.0 Safari/537.36 Edg/120.0.0.0" etag="Z97TxVWCMsqZiYutKGo0" version="22.1.11" type="device">
  <diagram name="Page-1" id="Mup5b4m2O3n8cK0U6JNr">
    <mxGraphModel dx="1670" dy="948" grid="1" gridSize="10" guides="1" tooltips="1" connect="1" arrows="1" fold="1" page="1" pageScale="1" pageWidth="850" pageHeight="1100" background="#99FFCC" math="0" shadow="0">
      <root>
        <mxCell id="0" />
        <mxCell id="1" parent="0" />
        <mxCell id="3TJckdkC_wRzyeDAdas--1" value="" style="shape=umlLifeline;perimeter=lifelinePerimeter;whiteSpace=wrap;html=1;container=1;dropTarget=0;collapsible=0;recursiveResize=0;outlineConnect=0;portConstraint=eastwest;newEdgeStyle={&quot;curved&quot;:0,&quot;rounded&quot;:0};participant=umlActor;" vertex="1" parent="1">
          <mxGeometry x="189" y="160" width="20" height="880" as="geometry" />
        </mxCell>
        <mxCell id="3TJckdkC_wRzyeDAdas--6" value="" style="html=1;points=[[0,0,0,0,5],[0,1,0,0,-5],[1,0,0,0,5],[1,1,0,0,-5]];perimeter=orthogonalPerimeter;outlineConnect=0;targetShapes=umlLifeline;portConstraint=eastwest;newEdgeStyle={&quot;curved&quot;:0,&quot;rounded&quot;:0};" vertex="1" parent="3TJckdkC_wRzyeDAdas--1">
          <mxGeometry x="5" y="70" width="10" height="620" as="geometry" />
        </mxCell>
        <mxCell id="3TJckdkC_wRzyeDAdas--30" value="" style="html=1;points=[[0,0,0,0,5],[0,1,0,0,-5],[1,0,0,0,5],[1,1,0,0,-5]];perimeter=orthogonalPerimeter;outlineConnect=0;targetShapes=umlLifeline;portConstraint=eastwest;newEdgeStyle={&quot;curved&quot;:0,&quot;rounded&quot;:0};" vertex="1" parent="3TJckdkC_wRzyeDAdas--1">
          <mxGeometry x="5" y="738" width="10" height="20" as="geometry" />
        </mxCell>
        <mxCell id="3TJckdkC_wRzyeDAdas--2" value="System" style="shape=umlLifeline;perimeter=lifelinePerimeter;whiteSpace=wrap;html=1;container=1;dropTarget=0;collapsible=0;recursiveResize=0;outlineConnect=0;portConstraint=eastwest;newEdgeStyle={&quot;curved&quot;:0,&quot;rounded&quot;:0};" vertex="1" parent="1">
          <mxGeometry x="374" y="160" width="100" height="880" as="geometry" />
        </mxCell>
        <mxCell id="3TJckdkC_wRzyeDAdas--7" value="" style="html=1;points=[[0,0,0,0,5],[0,1,0,0,-5],[1,0,0,0,5],[1,1,0,0,-5]];perimeter=orthogonalPerimeter;outlineConnect=0;targetShapes=umlLifeline;portConstraint=eastwest;newEdgeStyle={&quot;curved&quot;:0,&quot;rounded&quot;:0};" vertex="1" parent="3TJckdkC_wRzyeDAdas--2">
          <mxGeometry x="45" y="70" width="10" height="100" as="geometry" />
        </mxCell>
        <mxCell id="3TJckdkC_wRzyeDAdas--10" value="" style="html=1;points=[[0,0,0,0,5],[0,1,0,0,-5],[1,0,0,0,5],[1,1,0,0,-5]];perimeter=orthogonalPerimeter;outlineConnect=0;targetShapes=umlLifeline;portConstraint=eastwest;newEdgeStyle={&quot;curved&quot;:0,&quot;rounded&quot;:0};" vertex="1" parent="3TJckdkC_wRzyeDAdas--2">
          <mxGeometry x="45" y="210" width="10" height="80" as="geometry" />
        </mxCell>
        <mxCell id="3TJckdkC_wRzyeDAdas--12" value="" style="html=1;points=[[0,0,0,0,5],[0,1,0,0,-5],[1,0,0,0,5],[1,1,0,0,-5]];perimeter=orthogonalPerimeter;outlineConnect=0;targetShapes=umlLifeline;portConstraint=eastwest;newEdgeStyle={&quot;curved&quot;:0,&quot;rounded&quot;:0};" vertex="1" parent="3TJckdkC_wRzyeDAdas--2">
          <mxGeometry x="45" y="320" width="10" height="370" as="geometry" />
        </mxCell>
        <mxCell id="3TJckdkC_wRzyeDAdas--29" value="" style="html=1;points=[[0,0,0,0,5],[0,1,0,0,-5],[1,0,0,0,5],[1,1,0,0,-5]];perimeter=orthogonalPerimeter;outlineConnect=0;targetShapes=umlLifeline;portConstraint=eastwest;newEdgeStyle={&quot;curved&quot;:0,&quot;rounded&quot;:0};" vertex="1" parent="3TJckdkC_wRzyeDAdas--2">
          <mxGeometry x="46" y="740" width="10" height="20" as="geometry" />
        </mxCell>
        <mxCell id="3TJckdkC_wRzyeDAdas--3" value="DB" style="shape=umlLifeline;perimeter=lifelinePerimeter;whiteSpace=wrap;html=1;container=1;dropTarget=0;collapsible=0;recursiveResize=0;outlineConnect=0;portConstraint=eastwest;newEdgeStyle={&quot;curved&quot;:0,&quot;rounded&quot;:0};" vertex="1" parent="1">
          <mxGeometry x="535" y="160" width="100" height="880" as="geometry" />
        </mxCell>
        <mxCell id="3TJckdkC_wRzyeDAdas--4" value="Bank" style="shape=umlLifeline;perimeter=lifelinePerimeter;whiteSpace=wrap;html=1;container=1;dropTarget=0;collapsible=0;recursiveResize=0;outlineConnect=0;portConstraint=eastwest;newEdgeStyle={&quot;curved&quot;:0,&quot;rounded&quot;:0};" vertex="1" parent="1">
          <mxGeometry x="695" y="160" width="100" height="880" as="geometry" />
        </mxCell>
        <mxCell id="3TJckdkC_wRzyeDAdas--17" value="" style="html=1;points=[[0,0,0,0,5],[0,1,0,0,-5],[1,0,0,0,5],[1,1,0,0,-5]];perimeter=orthogonalPerimeter;outlineConnect=0;targetShapes=umlLifeline;portConstraint=eastwest;newEdgeStyle={&quot;curved&quot;:0,&quot;rounded&quot;:0};" vertex="1" parent="3TJckdkC_wRzyeDAdas--4">
          <mxGeometry x="45" y="489" width="10" height="71" as="geometry" />
        </mxCell>
        <mxCell id="3TJckdkC_wRzyeDAdas--5" value="Search by address or area of real estate" style="html=1;verticalAlign=bottom;endArrow=block;curved=0;rounded=0;" edge="1" parent="1" target="3TJckdkC_wRzyeDAdas--7">
          <mxGeometry width="80" relative="1" as="geometry">
            <mxPoint x="204" y="240" as="sourcePoint" />
            <mxPoint x="350" y="240" as="targetPoint" />
          </mxGeometry>
        </mxCell>
        <mxCell id="3TJckdkC_wRzyeDAdas--8" value="return list of real estates" style="html=1;verticalAlign=bottom;endArrow=open;dashed=1;endSize=8;curved=0;rounded=0;" edge="1" parent="1" target="3TJckdkC_wRzyeDAdas--6">
          <mxGeometry relative="1" as="geometry">
            <mxPoint x="419" y="320" as="sourcePoint" />
            <mxPoint x="203" y="320" as="targetPoint" />
          </mxGeometry>
        </mxCell>
        <mxCell id="3TJckdkC_wRzyeDAdas--9" value="Select a real estate" style="html=1;verticalAlign=bottom;endArrow=block;curved=0;rounded=0;" edge="1" parent="1">
          <mxGeometry width="80" relative="1" as="geometry">
            <mxPoint x="204" y="377" as="sourcePoint" />
            <mxPoint x="419" y="377" as="targetPoint" />
          </mxGeometry>
        </mxCell>
        <mxCell id="3TJckdkC_wRzyeDAdas--11" value="View the real estate" style="html=1;verticalAlign=bottom;endArrow=open;dashed=1;endSize=8;curved=0;rounded=0;" edge="1" parent="1">
          <mxGeometry relative="1" as="geometry">
            <mxPoint x="419" y="440" as="sourcePoint" />
            <mxPoint x="204" y="440" as="targetPoint" />
          </mxGeometry>
        </mxCell>
        <mxCell id="3TJckdkC_wRzyeDAdas--13" value="fill reservation data" style="html=1;verticalAlign=bottom;endArrow=block;curved=0;rounded=0;" edge="1" parent="1">
          <mxGeometry width="80" relative="1" as="geometry">
            <mxPoint x="204" y="490" as="sourcePoint" />
            <mxPoint x="419" y="490" as="targetPoint" />
          </mxGeometry>
        </mxCell>
        <mxCell id="3TJckdkC_wRzyeDAdas--14" value="View payment page" style="html=1;verticalAlign=bottom;endArrow=block;curved=0;rounded=0;" edge="1" parent="1">
          <mxGeometry width="80" relative="1" as="geometry">
            <mxPoint x="419" y="553" as="sourcePoint" />
            <mxPoint x="204" y="553" as="targetPoint" />
          </mxGeometry>
        </mxCell>
        <mxCell id="3TJckdkC_wRzyeDAdas--15" value="Fill Card info" style="html=1;verticalAlign=bottom;endArrow=block;curved=0;rounded=0;" edge="1" parent="1">
          <mxGeometry width="80" relative="1" as="geometry">
            <mxPoint x="205" y="609" as="sourcePoint" />
            <mxPoint x="420" y="609" as="targetPoint" />
          </mxGeometry>
        </mxCell>
        <mxCell id="3TJckdkC_wRzyeDAdas--18" value="Request for check card" style="html=1;verticalAlign=bottom;endArrow=block;curved=0;rounded=0;" edge="1" parent="1">
          <mxGeometry width="80" relative="1" as="geometry">
            <mxPoint x="429" y="660" as="sourcePoint" />
            <mxPoint x="740" y="660" as="targetPoint" />
          </mxGeometry>
        </mxCell>
        <mxCell id="3TJckdkC_wRzyeDAdas--19" value="Get response" style="html=1;verticalAlign=bottom;endArrow=open;dashed=1;endSize=8;curved=0;rounded=0;" edge="1" parent="1">
          <mxGeometry relative="1" as="geometry">
            <mxPoint x="740" y="710" as="sourcePoint" />
            <mxPoint x="430" y="710" as="targetPoint" />
          </mxGeometry>
        </mxCell>
        <mxCell id="3TJckdkC_wRzyeDAdas--20" value="alt" style="shape=umlFrame;whiteSpace=wrap;html=1;pointerEvents=0;" vertex="1" parent="1">
          <mxGeometry x="130" y="750" width="690" height="200" as="geometry" />
        </mxCell>
        <mxCell id="3TJckdkC_wRzyeDAdas--23" value="Save the operation" style="html=1;verticalAlign=bottom;endArrow=openThin;curved=0;rounded=0;endFill=0;" edge="1" parent="1" source="3TJckdkC_wRzyeDAdas--12">
          <mxGeometry width="80" relative="1" as="geometry">
            <mxPoint x="440" y="780" as="sourcePoint" />
            <mxPoint x="580" y="780" as="targetPoint" />
          </mxGeometry>
        </mxCell>
        <mxCell id="3TJckdkC_wRzyeDAdas--24" value="" style="html=1;points=[[0,0,0,0,5],[0,1,0,0,-5],[1,0,0,0,5],[1,1,0,0,-5]];perimeter=orthogonalPerimeter;outlineConnect=0;targetShapes=umlLifeline;portConstraint=eastwest;newEdgeStyle={&quot;curved&quot;:0,&quot;rounded&quot;:0};" vertex="1" parent="1">
          <mxGeometry x="580" y="768" width="10" height="30" as="geometry" />
        </mxCell>
        <mxCell id="3TJckdkC_wRzyeDAdas--25" value="View Success Reservation" style="html=1;verticalAlign=bottom;endArrow=open;curved=0;rounded=0;endFill=0;strokeColor=default;dashed=1;" edge="1" parent="1">
          <mxGeometry width="80" relative="1" as="geometry">
            <mxPoint x="419" y="818" as="sourcePoint" />
            <mxPoint x="204" y="818" as="targetPoint" />
          </mxGeometry>
        </mxCell>
        <mxCell id="3TJckdkC_wRzyeDAdas--26" value="" style="line;strokeWidth=1;fillColor=none;align=left;verticalAlign=middle;spacingTop=-1;spacingLeft=3;spacingRight=3;rotatable=0;labelPosition=right;points=[];portConstraint=eastwest;strokeColor=inherit;" vertex="1" parent="1">
          <mxGeometry x="130" y="860" width="690" height="8" as="geometry" />
        </mxCell>
        <mxCell id="3TJckdkC_wRzyeDAdas--28" value="Send Invalid Card" style="html=1;verticalAlign=bottom;endArrow=open;curved=0;rounded=0;dashed=1;endFill=0;" edge="1" parent="1">
          <mxGeometry width="80" relative="1" as="geometry">
            <mxPoint x="420" y="905" as="sourcePoint" />
            <mxPoint x="205" y="905" as="targetPoint" />
          </mxGeometry>
        </mxCell>
        <mxCell id="3TJckdkC_wRzyeDAdas--31" value="" style="whiteSpace=wrap;html=1;aspect=fixed;fillColor=none;" vertex="1" parent="1">
          <mxGeometry x="17" y="101" width="950" height="950" as="geometry" />
        </mxCell>
      </root>
    </mxGraphModel>
  </diagram>
</mxfile>
